<mxfile host="app.diagrams.net" modified="2024-06-12T17:30:55.648Z" agent="Mozilla/5.0 (X11; Linux x86_64; rv:109.0) Gecko/20100101 Firefox/115.0" etag="ibqmG1WXSrNXMY9PjjF0" version="24.5.4" type="device" pages="2">
  <diagram name="Page-1" id="lcbCgOlhfpNpeAwwaqVS">
    <mxGraphModel dx="2272" dy="795" grid="1" gridSize="10" guides="1" tooltips="1" connect="1" arrows="1" fold="1" page="1" pageScale="1" pageWidth="850" pageHeight="1100" math="0" shadow="0">
      <root>
        <mxCell id="0" />
        <mxCell id="1" parent="0" />
        <mxCell id="LXzQ3wCeS5pLdYK0UjK4-2" value="Виртуализация переключения контекста" style="rounded=0;whiteSpace=wrap;html=1;" parent="1" vertex="1">
          <mxGeometry x="150" y="250" width="250" height="60" as="geometry" />
        </mxCell>
        <mxCell id="LXzQ3wCeS5pLdYK0UjK4-3" value="" style="endArrow=classic;html=1;rounded=0;entryX=0;entryY=0.5;entryDx=0;entryDy=0;" parent="1" target="LXzQ3wCeS5pLdYK0UjK4-2" edge="1">
          <mxGeometry width="50" height="50" relative="1" as="geometry">
            <mxPoint x="-10" y="280" as="sourcePoint" />
            <mxPoint x="450" y="380" as="targetPoint" />
          </mxGeometry>
        </mxCell>
        <mxCell id="LXzQ3wCeS5pLdYK0UjK4-4" value="Контекст выполнения гостевой ВМ" style="text;html=1;align=center;verticalAlign=middle;whiteSpace=wrap;rounded=0;" parent="1" vertex="1">
          <mxGeometry y="250" width="140" height="30" as="geometry" />
        </mxCell>
        <mxCell id="LXzQ3wCeS5pLdYK0UjK4-7" value="" style="endArrow=classic;html=1;rounded=0;exitX=1;exitY=0.5;exitDx=0;exitDy=0;" parent="1" source="LXzQ3wCeS5pLdYK0UjK4-2" edge="1">
          <mxGeometry width="50" height="50" relative="1" as="geometry">
            <mxPoint x="210" y="310" as="sourcePoint" />
            <mxPoint x="560" y="280" as="targetPoint" />
          </mxGeometry>
        </mxCell>
        <mxCell id="LXzQ3wCeS5pLdYK0UjK4-8" value="Контекст выполнения доверенной ВМ" style="text;html=1;align=center;verticalAlign=middle;whiteSpace=wrap;rounded=0;" parent="1" vertex="1">
          <mxGeometry x="410" y="250" width="130" height="30" as="geometry" />
        </mxCell>
        <mxCell id="LXzQ3wCeS5pLdYK0UjK4-9" value="" style="endArrow=classic;html=1;rounded=0;entryX=0.25;entryY=1;entryDx=0;entryDy=0;exitX=0.11;exitY=-0.033;exitDx=0;exitDy=0;exitPerimeter=0;" parent="1" edge="1">
          <mxGeometry width="50" height="50" relative="1" as="geometry">
            <mxPoint x="221" y="400" as="sourcePoint" />
            <mxPoint x="220" y="311" as="targetPoint" />
          </mxGeometry>
        </mxCell>
        <mxCell id="LXzQ3wCeS5pLdYK0UjK4-10" value="ARM TrustZone" style="text;html=1;align=center;verticalAlign=middle;whiteSpace=wrap;rounded=0;" parent="1" vertex="1">
          <mxGeometry x="170" y="400" width="100" height="30" as="geometry" />
        </mxCell>
        <mxCell id="LXzQ3wCeS5pLdYK0UjK4-11" value="A0" style="text;html=1;align=center;verticalAlign=middle;whiteSpace=wrap;rounded=0;" parent="1" vertex="1">
          <mxGeometry x="360" y="290" width="60" height="30" as="geometry" />
        </mxCell>
        <mxCell id="CEB0nDuukxXMBNJPYlxX-3" value="" style="endArrow=classic;html=1;rounded=0;entryX=0.25;entryY=1;entryDx=0;entryDy=0;exitX=0.11;exitY=-0.033;exitDx=0;exitDy=0;exitPerimeter=0;" parent="1" edge="1">
          <mxGeometry width="50" height="50" relative="1" as="geometry">
            <mxPoint x="331" y="400" as="sourcePoint" />
            <mxPoint x="330" y="311" as="targetPoint" />
          </mxGeometry>
        </mxCell>
        <mxCell id="CEB0nDuukxXMBNJPYlxX-4" value="Гипервизор" style="text;html=1;align=center;verticalAlign=middle;whiteSpace=wrap;rounded=0;" parent="1" vertex="1">
          <mxGeometry x="270" y="400" width="130" height="30" as="geometry" />
        </mxCell>
      </root>
    </mxGraphModel>
  </diagram>
  <diagram id="3tlhMPdmY8ixvJjufG2K" name="Page-2">
    <mxGraphModel dx="2881" dy="1136" grid="1" gridSize="10" guides="1" tooltips="1" connect="1" arrows="1" fold="1" page="1" pageScale="1" pageWidth="850" pageHeight="1100" math="0" shadow="0">
      <root>
        <mxCell id="0" />
        <mxCell id="1" parent="0" />
        <mxCell id="0VKuLTN7E4tZpJ-d6PUg-1" value="&lt;font style=&quot;font-size: 18px;&quot;&gt;Сохранить контекст выполнения гостевой ВМ в безопасном мире&lt;/font&gt;" style="rounded=0;whiteSpace=wrap;html=1;" parent="1" vertex="1">
          <mxGeometry x="60" y="240" width="250" height="70" as="geometry" />
        </mxCell>
        <mxCell id="0VKuLTN7E4tZpJ-d6PUg-2" value="&lt;font style=&quot;font-size: 19px;&quot;&gt;Найти идентификатор доверенной ВМ&lt;/font&gt;" style="rounded=0;whiteSpace=wrap;html=1;" parent="1" vertex="1">
          <mxGeometry x="440" y="340" width="260" height="70" as="geometry" />
        </mxCell>
        <mxCell id="LqwwcWGLCnrZOqNEBrvj-1" value="&lt;font style=&quot;font-size: 18px;&quot;&gt;Восстановить контекст выполнения доверенной ВМ&lt;/font&gt;" style="rounded=0;whiteSpace=wrap;html=1;" parent="1" vertex="1">
          <mxGeometry x="830" y="440" width="260" height="70" as="geometry" />
        </mxCell>
        <mxCell id="bsQbiU3whHpoO2EpmfmQ-1" value="" style="endArrow=classic;html=1;rounded=0;entryX=0;entryY=0.5;entryDx=0;entryDy=0;" parent="1" edge="1">
          <mxGeometry width="50" height="50" relative="1" as="geometry">
            <mxPoint x="-100" y="280" as="sourcePoint" />
            <mxPoint x="60" y="280" as="targetPoint" />
          </mxGeometry>
        </mxCell>
        <mxCell id="bsQbiU3whHpoO2EpmfmQ-2" value="&lt;font style=&quot;font-size: 14px;&quot;&gt;Контекст выполнения гостевой ВМ&lt;/font&gt;" style="text;html=1;align=center;verticalAlign=middle;whiteSpace=wrap;rounded=0;" parent="1" vertex="1">
          <mxGeometry x="-110" y="250" width="170" height="30" as="geometry" />
        </mxCell>
        <mxCell id="SKgszW9dnvSs3LAPlZ34-1" value="" style="endArrow=classic;html=1;rounded=0;exitX=1;exitY=0.5;exitDx=0;exitDy=0;" parent="1" edge="1">
          <mxGeometry width="50" height="50" relative="1" as="geometry">
            <mxPoint x="1090" y="480" as="sourcePoint" />
            <mxPoint x="1250" y="480" as="targetPoint" />
          </mxGeometry>
        </mxCell>
        <mxCell id="SKgszW9dnvSs3LAPlZ34-2" value="&lt;font style=&quot;font-size: 14px;&quot;&gt;Контекст выполнения доверенной ВМ&lt;/font&gt;" style="text;html=1;align=center;verticalAlign=middle;whiteSpace=wrap;rounded=0;" parent="1" vertex="1">
          <mxGeometry x="1090" y="450" width="160" height="30" as="geometry" />
        </mxCell>
        <mxCell id="rU53EXWVNr6iQH53vTDF-5" value="" style="endArrow=classic;html=1;rounded=0;exitX=1;exitY=0.5;exitDx=0;exitDy=0;entryX=0;entryY=0.5;entryDx=0;entryDy=0;" parent="1" source="0VKuLTN7E4tZpJ-d6PUg-1" target="0VKuLTN7E4tZpJ-d6PUg-2" edge="1">
          <mxGeometry width="50" height="50" relative="1" as="geometry">
            <mxPoint x="400" y="430" as="sourcePoint" />
            <mxPoint x="450" y="380" as="targetPoint" />
            <Array as="points">
              <mxPoint x="340" y="275" />
              <mxPoint x="340" y="330" />
              <mxPoint x="340" y="375" />
            </Array>
          </mxGeometry>
        </mxCell>
        <mxCell id="rU53EXWVNr6iQH53vTDF-7" value="" style="endArrow=classic;html=1;rounded=0;exitX=1;exitY=0.5;exitDx=0;exitDy=0;entryX=0;entryY=0.561;entryDx=0;entryDy=0;entryPerimeter=0;" parent="1" source="0VKuLTN7E4tZpJ-d6PUg-2" target="LqwwcWGLCnrZOqNEBrvj-1" edge="1">
          <mxGeometry width="50" height="50" relative="1" as="geometry">
            <mxPoint x="820" y="420" as="sourcePoint" />
            <mxPoint x="870" y="370" as="targetPoint" />
            <Array as="points">
              <mxPoint x="710" y="375" />
              <mxPoint x="710" y="480" />
            </Array>
          </mxGeometry>
        </mxCell>
        <mxCell id="rU53EXWVNr6iQH53vTDF-10" value="" style="endArrow=classic;html=1;rounded=0;entryX=0.5;entryY=1;entryDx=0;entryDy=0;" parent="1" target="LqwwcWGLCnrZOqNEBrvj-1" edge="1">
          <mxGeometry width="50" height="50" relative="1" as="geometry">
            <mxPoint x="960" y="600" as="sourcePoint" />
            <mxPoint x="965" y="460" as="targetPoint" />
          </mxGeometry>
        </mxCell>
        <mxCell id="rU53EXWVNr6iQH53vTDF-11" value="" style="endArrow=classic;html=1;rounded=0;entryX=0.5;entryY=1;entryDx=0;entryDy=0;" parent="1" target="0VKuLTN7E4tZpJ-d6PUg-1" edge="1">
          <mxGeometry width="50" height="50" relative="1" as="geometry">
            <mxPoint x="185" y="600" as="sourcePoint" />
            <mxPoint x="410" y="440" as="targetPoint" />
          </mxGeometry>
        </mxCell>
        <mxCell id="rU53EXWVNr6iQH53vTDF-12" value="ARM TrustZone" style="text;html=1;align=center;verticalAlign=middle;whiteSpace=wrap;rounded=0;" parent="1" vertex="1">
          <mxGeometry x="135" y="610" width="100" height="30" as="geometry" />
        </mxCell>
        <mxCell id="rU53EXWVNr6iQH53vTDF-13" value="" style="endArrow=classic;html=1;rounded=0;entryX=0.5;entryY=1;entryDx=0;entryDy=0;" parent="1" edge="1">
          <mxGeometry width="50" height="50" relative="1" as="geometry">
            <mxPoint x="560" y="590" as="sourcePoint" />
            <mxPoint x="560" y="410" as="targetPoint" />
          </mxGeometry>
        </mxCell>
        <mxCell id="rU53EXWVNr6iQH53vTDF-15" value="&lt;font style=&quot;font-size: 14px;&quot;&gt;ID доверенной ВМ&lt;/font&gt;" style="text;html=1;align=center;verticalAlign=middle;whiteSpace=wrap;rounded=0;" parent="1" vertex="1">
          <mxGeometry x="720" y="450" width="100" height="30" as="geometry" />
        </mxCell>
        <mxCell id="RJ-yyVGkGGPa7BktpvYt-1" value="A21" style="text;html=1;align=center;verticalAlign=middle;whiteSpace=wrap;rounded=0;" parent="1" vertex="1">
          <mxGeometry x="268" y="290" width="60" height="30" as="geometry" />
        </mxCell>
        <mxCell id="RJ-yyVGkGGPa7BktpvYt-2" value="A22" style="text;html=1;align=center;verticalAlign=middle;whiteSpace=wrap;rounded=0;" parent="1" vertex="1">
          <mxGeometry x="648" y="390" width="60" height="30" as="geometry" />
        </mxCell>
        <mxCell id="RJ-yyVGkGGPa7BktpvYt-3" value="&lt;font style=&quot;font-size: 11px;&quot;&gt;A23&lt;/font&gt;" style="text;html=1;align=center;verticalAlign=middle;whiteSpace=wrap;rounded=0;" parent="1" vertex="1">
          <mxGeometry x="1050" y="490" width="60" height="30" as="geometry" />
        </mxCell>
        <mxCell id="PfFWzJjsHQ4lXciwL8po-1" value="&lt;font style=&quot;font-size: 14px;&quot;&gt;ID гостевой ВМ&lt;/font&gt;" style="text;html=1;align=center;verticalAlign=middle;whiteSpace=wrap;rounded=0;" parent="1" vertex="1">
          <mxGeometry x="350" y="340" width="80" height="30" as="geometry" />
        </mxCell>
        <mxCell id="c6jKLJ1eAXWPDH7eKDO--1" value="Гипервизор" style="text;html=1;align=center;verticalAlign=middle;whiteSpace=wrap;rounded=0;" parent="1" vertex="1">
          <mxGeometry x="897.5" y="600" width="125" height="30" as="geometry" />
        </mxCell>
        <mxCell id="a5lOM9on8cqfiSrlchm8-1" value="" style="endArrow=none;html=1;rounded=0;" edge="1" parent="1">
          <mxGeometry width="50" height="50" relative="1" as="geometry">
            <mxPoint x="560" y="590" as="sourcePoint" />
            <mxPoint x="960" y="590" as="targetPoint" />
          </mxGeometry>
        </mxCell>
      </root>
    </mxGraphModel>
  </diagram>
</mxfile>
